<?xml version="1.0" standalone="no"?>
<!DOCTYPE svg PUBLIC "-//W3C//DTD SVG 20010904//EN"
 "http://www.w3.org/TR/2001/REC-SVG-20010904/DTD/svg10.dtd">
<svg version="1.0" xmlns="http://www.w3.org/2000/svg"
 width="246.000000pt" height="76.000000pt" viewBox="0 0 246.000000 76.000000"
 preserveAspectRatio="xMidYMid meet">

<g transform="translate(0.000000,76.000000) scale(0.100000,-0.100000)"
fill="#000000" stroke="none">
<path d="M522 614 c-24 -17 -29 -53 -10 -72 16 -16 70 -16 86 0 27 27 -2 88
-43 88 -6 0 -21 -7 -33 -16z"/>
<path d="M1606 614 c-39 -38 4 -105 56 -88 29 9 38 22 38 56 0 44 -62 65 -94
32z"/>
<path d="M130 400 l0 -222 128 4 c91 3 136 9 157 20 77 41 79 167 3 199 l-29
12 30 18 c55 34 54 121 -2 161 -29 21 -46 23 -159 27 l-128 3 0 -222z m201
130 c50 -27 2 -94 -63 -88 -32 3 -33 5 -36 51 l-3 47 41 0 c23 0 50 -5 61 -10z
m21 -190 c33 -40 -17 -85 -86 -78 -28 3 -31 7 -34 42 -5 62 1 69 55 63 32 -3
53 -12 65 -27z"/>
<path d="M860 545 c0 -41 -3 -75 -7 -75 -5 0 -17 7 -27 15 -29 22 -98 19 -130
-6 -41 -32 -59 -77 -60 -145 0 -69 26 -123 69 -142 41 -19 99 -15 129 9 l26
20 0 -20 c0 -18 6 -21 50 -21 l50 0 0 220 0 220 -50 0 -50 0 0 -75z m-24 -146
c41 -45 12 -139 -42 -139 -50 0 -74 100 -34 140 26 26 52 25 76 -1z"/>
<path d="M975 598 c3 -13 29 -111 58 -218 l52 -195 62 -3 c61 -3 63 -2 69 25
4 15 19 75 34 133 l26 105 33 -133 33 -132 62 0 62 0 57 214 c31 118 57 217
57 220 0 3 -26 6 -58 6 l-59 0 -26 -117 c-15 -65 -27 -126 -27 -135 0 -10 -3
-18 -7 -18 -5 0 -22 60 -39 133 l-31 132 -56 3 c-52 3 -57 1 -62 -20 -3 -13
-18 -77 -34 -143 l-28 -119 -12 54 c-6 30 -21 94 -32 143 l-21 87 -59 0 c-57
0 -59 -1 -54 -22z"/>
<path d="M1597 493 c-4 -3 -7 -75 -7 -160 l0 -153 55 0 55 0 0 160 0 160 -48
0 c-27 0 -52 -3 -55 -7z"/>
<path d="M1794 490 c-32 -13 -64 -59 -64 -92 0 -46 43 -82 117 -97 64 -12 86
-27 62 -42 -24 -15 -57 -10 -73 12 -13 19 -20 20 -64 14 l-50 -7 10 -29 c15
-45 72 -74 143 -74 76 0 124 26 143 77 27 70 -10 103 -150 133 -32 6 -37 31
-8 40 21 7 60 -10 60 -25 0 -6 23 -10 50 -10 28 0 50 5 50 10 0 28 -35 73 -65
86 -37 15 -128 18 -161 4z"/>
<path d="M2112 481 c-48 -31 -72 -77 -72 -139 0 -108 56 -165 160 -165 41 0
67 6 92 21 32 20 67 66 57 76 -13 13 -88 8 -109 -7 -34 -24 -55 -21 -80 11
l-22 27 109 5 108 5 -3 40 c-8 92 -54 138 -147 143 -47 2 -67 -1 -93 -17z
m126 -73 c22 -22 13 -28 -38 -28 -27 0 -50 4 -50 8 0 16 25 32 50 32 14 0 31
-5 38 -12z"/>
<path d="M500 334 l0 -155 53 3 52 3 3 153 3 152 -56 0 -55 0 0 -156z"/>
</g>
</svg>
